<svg width="20" height="20" viewBox="0 0 20 20" fill="none" xmlns="http://www.w3.org/2000/svg">
<path d="M9.97775 13.2257L9.38774 12.7257L4.31674 8.37671C4.13308 8.21996 4.01921 7.99668 4.00017 7.75598C3.98114 7.51528 4.0585 7.27687 4.21525 7.09321C4.37199 6.90955 4.59527 6.79567 4.83597 6.77664C5.07668 6.7576 5.31508 6.83496 5.49874 6.99171L9.98574 10.8357L14.4987 6.98971C14.6824 6.83283 14.9209 6.75534 15.1617 6.77428C15.4025 6.79322 15.6259 6.90705 15.7827 7.09071C15.9396 7.27437 16.0171 7.51283 15.9982 7.75363C15.9792 7.99442 15.8654 8.21783 15.6817 8.37471L9.97775 13.2257Z" fill="#888888"/>
</svg>
