<svg width="20" height="20" viewBox="0 0 20 20" fill="none" xmlns="http://www.w3.org/2000/svg">
<path fill-rule="evenodd" clip-rule="evenodd" d="M10 19C14.9706 19 19 14.9706 19 10C19 5.02944 14.9706 1 10 1C5.02944 1 1 5.02944 1 10C1 14.9706 5.02944 19 10 19ZM8.66424 11.3487L7.20659 9.89104C7.141 9.82524 7.06308 9.77304 6.97728 9.73742C6.89148 9.70181 6.79949 9.68347 6.70659 9.68347C6.61369 9.68347 6.5217 9.70181 6.4359 9.73742C6.3501 9.77304 6.27218 9.82524 6.20659 9.89104C6.1408 9.95662 6.08859 10.0346 6.05298 10.1204C6.01736 10.2062 5.99902 10.2981 5.99902 10.391C5.99902 10.4839 6.01736 10.5759 6.05298 10.6617C6.08859 10.7475 6.1408 10.8255 6.20659 10.891L8.12823 12.8137C8.14165 12.8294 8.15578 12.8445 8.17058 12.859C8.30268 12.9885 8.48064 13.0604 8.66558 13.059C8.75928 13.0593 8.85208 13.0408 8.93848 13.0045C9.02488 12.9683 9.10313 12.9151 9.16858 12.848L13.7976 8.14403C13.8629 8.07792 13.9144 7.99957 13.9494 7.91349C13.9843 7.8274 14.0019 7.73527 14.0012 7.64237C14.0004 7.54947 13.9813 7.45763 13.945 7.37211C13.9087 7.2866 13.8559 7.20909 13.7896 7.14403C13.7235 7.07876 13.6451 7.02718 13.559 6.99224C13.473 6.95731 13.3808 6.93971 13.2879 6.94045C13.195 6.9412 13.1032 6.96027 13.0177 6.99657C12.9322 7.03288 12.8546 7.08571 12.7896 7.15203L8.66424 11.3487Z" fill="#47A809"/>
</svg>
