<svg width="20" height="20" viewBox="0 0 20 20" fill="none" xmlns="http://www.w3.org/2000/svg">
<path d="M10 1C11.78 1 13.5201 1.52784 15.0001 2.51677C16.4802 3.50571 17.6337 4.91131 18.3149 6.55585C18.9961 8.20038 19.1743 10.01 18.8271 11.7558C18.4798 13.5016 17.6226 15.1053 16.364 16.364C15.1053 17.6226 13.5016 18.4798 11.7558 18.8271C10.01 19.1743 8.20038 18.9961 6.55585 18.3149C4.91131 17.6337 3.5057 16.4802 2.51677 15.0001C1.52784 13.5201 0.999996 11.78 0.999996 10C0.999996 7.61305 1.94821 5.32387 3.63603 3.63604C5.32386 1.94821 7.61305 1 10 1ZM10 18.174C11.6166 18.1738 13.1969 17.6942 14.541 16.7959C15.885 15.8977 16.9326 14.621 17.5511 13.1274C18.1696 11.6337 18.3313 9.99025 18.0158 8.40472C17.7003 6.81918 16.9217 5.36281 15.7785 4.21976C14.6353 3.0767 13.1789 2.2983 11.5933 1.98299C10.0077 1.66767 8.36426 1.8296 6.87071 2.4483C5.37717 3.067 4.10062 4.11469 3.20249 5.45887C2.30437 6.80306 1.825 8.38338 1.825 10C1.825 11.0735 2.03646 12.1365 2.4473 13.1283C2.85814 14.1201 3.46033 15.0212 4.21946 15.7802C4.97859 16.5393 5.8798 17.1414 6.87163 17.5521C7.86347 17.9628 8.92649 18.1741 10 18.174ZM17.177 10L7.077 15.832L10.6 9.905L7.078 4.17L17.177 10Z" fill="#FAA427"/>
</svg>
