<svg width="20" height="20" viewBox="0 0 20 20" fill="none" xmlns="http://www.w3.org/2000/svg">
<g clip-path="url(#clip0_2_1319)">
<path d="M10.0003 4H9.99928C9.09574 4 8.36328 4.73246 8.36328 5.636V5.637C8.36328 6.54054 9.09574 7.273 9.99928 7.273H10.0003C10.9038 7.273 11.6363 6.54054 11.6363 5.637V5.636C11.6363 4.73246 10.9038 4 10.0003 4Z" fill="#888888"/>
<path d="M10.0003 8.36401H9.99928C9.09574 8.36401 8.36328 9.09648 8.36328 10V10.001C8.36328 10.9046 9.09574 11.637 9.99928 11.637H10.0003C10.9038 11.637 11.6363 10.9046 11.6363 10.001V10C11.6363 9.09648 10.9038 8.36401 10.0003 8.36401Z" fill="#888888"/>
<path d="M10.0003 12.727H9.99928C9.09574 12.727 8.36328 13.4595 8.36328 14.363V14.364C8.36328 15.2675 9.09574 16 9.99928 16H10.0003C10.9038 16 11.6363 15.2675 11.6363 14.364V14.363C11.6363 13.4595 10.9038 12.727 10.0003 12.727Z" fill="#888888"/>
</g>
<defs>
<clipPath id="clip0_2_1319">
<rect width="20" height="20" fill="white"/>
</clipPath>
</defs>
</svg>
